<?xml version="1.0" encoding="utf-8"?>
<svg version="1.0" id="Layer_1" xmlns="http://www.w3.org/2000/svg" x="0px" y="0px"
	 viewBox="0 0 26.997 26.997" enable-background="new 0 0 26.997 26.997" xml:space="preserve">
<g>
	<path fill="hsl(195, 100%, 36%)" d="M22.137,0c2.771,0,4.859,2.412,4.859,4.859v17.278c0,2.7-2.412,4.859-4.859,4.859H4.859C2.124,26.997,0,24.585,0,22.137
		V4.859C0,2.448,2.412,0,4.859,0H22.137z M5.832,14.146v-1.295h-2.7v1.295H5.832z M7.163,9.143l-2.34-1.295l-0.612,1.08l2.304,1.296
		L7.163,9.143z M7.163,17.89l-0.648-1.08l-2.304,1.332l0.648,1.08L7.163,17.89z M13.426,19.726c3.456,0,6.263-2.772,6.263-6.191
		c0-3.456-2.808-6.263-6.263-6.263c-3.419,0-6.191,2.808-6.191,6.263C7.235,16.954,10.007,19.726,13.426,19.726z M10.151,6.551
		L8.819,4.248l-1.08,0.648l1.332,2.339L10.151,6.551z M10.151,20.481l-1.044-0.684l-1.368,2.34l1.08,0.648L10.151,20.481z
		 M14.11,5.903V3.167h-1.296v2.736H14.11z M14.11,23.829v-2.7h-1.296v2.7H14.11z M19.149,4.859l-1.08-0.612l-1.296,2.304l1.08,0.648
		L19.149,4.859z M19.114,22.137l-1.296-2.34l-1.044,0.648l1.26,2.34L19.114,22.137z M22.749,8.891l-0.648-1.08l-2.339,1.332
		l0.684,1.044L22.749,8.891z M22.713,18.142L20.41,16.81l-0.648,1.08l2.304,1.332L22.713,18.142z M23.829,14.146v-1.295h-2.7v1.295
		H23.829z"/>
</g>
</svg>
